<?xml version="1.0" encoding="iso-8859-1"?>
<!-- Uploaded to: SVG Repo, www.svgrepo.com, Generator: SVG Repo Mixer Tools -->
<!DOCTYPE svg PUBLIC "-//W3C//DTD SVG 1.1//EN" "http://www.w3.org/Graphics/SVG/1.1/DTD/svg11.dtd">
<svg height="800px" width="800px" version="1.1" id="Capa_1" xmlns="http://www.w3.org/2000/svg" xmlns:xlink="http://www.w3.org/1999/xlink" 
	 viewBox="0 0 120.632 120.632" xml:space="preserve">
<g>
	<path style="fill:#231F20;" d="M13.753,82.145h93.126c1.604,0,2.903-1.3,2.903-2.903V27.705c0-1.603-1.3-2.903-2.903-2.903H13.753
		c-1.604,0-2.903,1.3-2.903,2.903v51.536C10.85,80.845,12.149,82.145,13.753,82.145z M16.656,30.608h87.319v45.729H16.656V30.608z"
		/>
	<path style="fill:#231F20;" d="M117.729,90.023h-2.342c0.103-0.291,0.17-0.599,0.17-0.925c0-1.533-1.242-2.775-2.775-2.775H7.852
		c-1.533,0-2.775,1.242-2.775,2.775c0,0.326,0.066,0.634,0.17,0.925H2.903C1.3,90.023,0,91.323,0,92.927s1.3,2.903,2.903,2.903
		h114.825c1.604,0,2.903-1.3,2.903-2.903S119.332,90.023,117.729,90.023z"/>
	<path style="fill:#231F20;" d="M78.611,47.056l1.998,20.39l5.14-6.871l6.085,8.499c0.403,0.563,1.037,0.863,1.681,0.863
		c0.416,0,0.836-0.125,1.2-0.386c0.927-0.664,1.141-1.954,0.477-2.881l-6.084-8.5l8.161-2.65L78.611,47.056z"/>
	<path style="fill:#231F20;" d="M37.571,53.72c1.522-0.28,2.133-1.896,2.133-3.329c0-2.235-1.17-4.158-4.393-4.158h-6.42v15.57
		h6.478c3.275,0,4.582-1.679,4.582-4.573C39.952,55.249,38.87,53.956,37.571,53.72z M31.879,48.859h3.257
		c0.755,0,1.637,0.334,1.637,1.777c0,1.112-0.567,1.765-1.637,1.765h-3.257V48.859z M35.253,59.176h-3.374v-4.265h3.374
		c1.26,0,1.722,1.041,1.722,2.183C36.975,58.747,36.157,59.176,35.253,59.176z"/>
	<path style="fill:#231F20;" d="M50.635,54.996c0,3.437-0.904,4.169-2.893,4.169c-2.231,0-3.02-0.609-3.02-4.169v-8.764h-2.979
		v8.764c0,7.083,3.105,6.913,5.999,6.913c2.573,0,5.892-0.043,5.892-6.913v-8.764h-2.999V54.996z"/>
	<polygon style="fill:#231F20;" points="61.584,53.698 58.546,46.232 55.303,46.232 60.048,56.975 60.048,61.803 63.025,61.803 
		63.025,56.975 68.149,46.232 64.906,46.232 	"/>
</g>
</svg>